<svg xmlns="http://www.w3.org/2000/svg" viewBox="0 0 1440 1440">
    <style>
       
        #logo-tiny {
            opacity: 1;
        }
    
        #logo-sml,    
        #logo-med,        
        #logo-lg,    
        #logo-xl{
            opacity: 0;
        }

        @media all and (min-width: 48px) {
            #logo-sml {
                opacity: 1;
            }
            #logo-tiny {
                opacity: 0;
            }
        }        

        @media all and (min-width: 96px) {
            #logo-med {
                opacity: 1;
            }
            #logo-sml {
                opacity: 0;
            }
        }
                
        @media all and (min-width: 180px) {
            #logo-lg {
                opacity: 1;
            }
            #logo-med {
                opacity: 0;
            }
        }
        
        @media all and (min-width: 720px) {
            #logo-xl {
                opacity: 1;
            }
            #logo-lg {
                opacity: 0;
            }
        }
    </style>
    
    <path id="logo-tiny"  fill-rule="evenodd" d="M854,446 L1294,446 L1134,602 L930,602 L848.644,682 L1186,682 L1026,838 L690,838 L450,1074 L214,1074 L454,838 L146,838 L467.356,522 L238,522 L398,366 L838,366 L516.644,682 L612.644,682 L694,602 L854,446 Z"/>

    <path id="logo-sml" d="M904.636759,342 L396.236363,342 L187.005593,546 L416.718,546 L95.3632408,862 L403.362,862 L163.363241,1098 L467.823191,1098 L707.822,862 L1043.76364,862 L1252.99441,658 L915.28,658 L947.822,626 L1151.76364,626 L1360.99441,422 L852.236363,422 L685.172648,584.887425 L610.82,658 L583.28,658 L904.636759,342 Z M630.467185,706 L718.754403,619.184003 L871.763,470 L1243.004,470 L1132.235,578 L928.176815,578 L798.007215,706 L1135.004,706 L1024.235,814 L688.176809,814 L448.176,1050 L280.636,1050 L520.63675,814 L212.636,814 L533.992759,498 L304.994,498 L415.763,390 L787.362,390 L466.007241,706 L630.467185,706 Z"/>

    <path id="logo-med" d="M854,366 L532.632,681.996 L628.632,681.996 L710,602 L870,446 L1310,446 L1150,602 L946,602 L864.636,681.996 L1202,682 L1042,838 L705.984,837.996 L466,1074 L230,1074 L469.98,837.996 L162,838 L483.36,522 L254,522 L414,366 L854,366 Z M795.344,390 L423.752,390 L312.992,498 L541.99728,498 L220.628,813.996 L528.613332,813.995238 L288.62,1050 L456.176,1050 L696.160342,813.995883 L1032.236,813.996 L1142.996,705.996 L805.99372,705.995305 L936.177854,578 L1140.236,577.992 L1250.996,469.992 L879.752,469.992 L726.825662,619.114237 L638.453802,705.996 L473.99315,705.996 L795.344,390 Z"/>

    <path id="logo-lg" d="M879.772793,362 L428.372727,362 L260.167599,526 L489.582,526 L168.227207,842 L476.226,842 L236.227207,1078 L483.637199,1078 L723.637,842 L1059.62727,842 L1227.8324,678 L890.416,678 L963.637,606 L1167.62727,606 L1335.8324,442 L884.372727,442 L723.207599,599.135999 L643.005,678 L558.416,678 L879.772793,362 Z M431.627,370 L860.226,370 L538.871207,686 L646.281198,686 L728.804559,604.852096 L887.627,450 L1316.166,450 L1164.371,598 L960.362802,598 L870.871202,686 L1208.166,686 L1056.371,834 L720.362801,834 L480.361,1070 L255.772,1070 L495.772792,834 L187.772,834 L509.128793,518 L279.832,518 L431.627,370 Z"/>

        
  <path id="logo-xl" d="M874.886397,364 L429.186364,364 L265.083799,524 L494.468,524 L173.113603,840 L481.112,840 L241.113603,1076 L482.818599,1076 L722.818,840 L1058.81364,840 L1222.9162,680 L885.53,680 L962.818,604 L1166.81364,604 L1330.9162,444 L885.186364,444 L724.6038,600.568 L643.824,680 L553.53,680 L874.886397,364 Z M430.813,368 L865.112,368 L543.757603,684 L645.462599,684 L727.402279,603.426048 L886.813,448 L1321.082,448 L1165.185,600 L961.181401,600 L875.757601,684 L1213.082,684 L1057.185,836 L721.181401,836 L481.18,1072 L250.886,1072 L490.886396,836 L182.886,836 L504.242397,520 L274.916,520 L430.813,368 Z"/>
</svg>