<?xml version="1.0" encoding="UTF-8"?>
<svg width="32px" height="32px" viewBox="0 0 32 32" version="1.1" xmlns="http://www.w3.org/2000/svg" xmlns:xlink="http://www.w3.org/1999/xlink">
    <title>grid</title>
    <g id="grid" stroke="none" stroke-width="1" fill="none" fill-rule="evenodd">
        <path d="M25.6640625,26.5664062 C25.9375,26.5664062 26.1582031,26.4824219 26.3261719,26.3144531 C26.4941406,26.1464844 26.578125,25.9257812 26.578125,25.6523438 L26.578125,6.9140625 C26.578125,6.640625 26.4941406,6.41992188 26.3261719,6.25195312 C26.1582031,6.08398438 25.9375,6 25.6640625,6 L6.92578125,6 C6.64453125,6 6.41992188,6.08398438 6.25195312,6.25195312 C6.08398438,6.41992188 6,6.640625 6,6.9140625 L6,25.6523438 C6,25.9257812 6.08398438,26.1464844 6.25195312,26.3144531 C6.41992188,26.4824219 6.64453125,26.5664062 6.92578125,26.5664062 L25.6640625,26.5664062 Z M8.015625,8.3203125 C8.015625,8.109375 8.12109375,8.00390625 8.33203125,8.00390625 L15.3037813,8.00453125 L15.3046875,15.28125 L8.01478125,15.2815313 L8.015625,8.3203125 Z M24.5737812,15.2815313 L17.2851562,15.28125 L17.2847813,8.00453125 L24.2460938,8.00390625 C24.4648438,8.00390625 24.5742188,8.109375 24.5742188,8.3203125 L24.5737812,15.2815313 Z M24.2460938,24.5625312 L17.2847813,24.5625312 L17.2851562,17.2734375 L24.5737812,17.2735312 L24.5742188,24.234375 C24.5742188,24.453125 24.4648438,24.5625312 24.2460938,24.5625312 Z M15.3037813,24.5625312 L8.33203125,24.5625312 C8.12109375,24.5625312 8.015625,24.453125 8.015625,24.234375 L8.01478125,17.2735312 L15.3046875,17.2734375 L15.3037813,24.5625312 Z" id="􀮞" fill="#000000" fill-rule="nonzero"></path>
    </g>
</svg>