<?xml version="1.0" encoding="UTF-8"?>
<svg width="32px" height="32px" viewBox="0 0 32 32" version="1.1" xmlns="http://www.w3.org/2000/svg" xmlns:xlink="http://www.w3.org/1999/xlink">
    <title>moon</title>
    <g id="moon" stroke="none" stroke-width="1" fill="none" fill-rule="evenodd">
        <path d="M16.390625,27.78125 C17.953125,27.78125 19.421875,27.4824219 20.796875,26.8847656 C22.171875,26.2871094 23.3828125,25.4648438 24.4296875,24.4179688 C25.4765625,23.3710938 26.296875,22.1621094 26.890625,20.7910156 C27.484375,19.4199219 27.78125,17.953125 27.78125,16.390625 C27.78125,14.828125 27.484375,13.3613281 26.890625,11.9902344 C26.296875,10.6191406 25.4746094,9.40820312 24.4238281,8.35742188 C23.3730469,7.30664062 22.1601562,6.484375 20.7851562,5.890625 C19.4101562,5.296875 17.9414062,5 16.3789062,5 C14.8320312,5 13.3710938,5.296875 11.9960938,5.890625 C10.6210938,6.484375 9.40820312,7.30664062 8.35742188,8.35742188 C7.30664062,9.40820312 6.484375,10.6191406 5.890625,11.9902344 C5.296875,13.3613281 5,14.828125 5,16.390625 C5,17.953125 5.29882812,19.4199219 5.89648438,20.7910156 C6.49414062,22.1621094 7.31640625,23.3710938 8.36328125,24.4179688 C9.41015625,25.4648438 10.6210938,26.2871094 11.9960938,26.8847656 C13.3710938,27.4824219 14.8359375,27.78125 16.390625,27.78125 Z M16.6835938,22.9882812 C15.4414062,22.9882812 14.3261719,22.7128906 13.3378906,22.1621094 C12.3496094,21.6113281 11.5683594,20.8554688 10.9941406,19.8945312 C10.4199219,18.9335938 10.1328125,17.8359375 10.1328125,16.6015625 C10.1328125,15.7109375 10.2949219,14.859375 10.6191406,14.046875 C10.9433594,13.234375 11.4003906,12.5175781 11.9902344,11.8964844 C12.5800781,11.2753906 13.2695312,10.8046875 14.0585938,10.484375 C14.1367188,10.4609375 14.2089844,10.4414062 14.2753906,10.4257812 C14.3417969,10.4101562 14.3984375,10.4023438 14.4453125,10.4023438 C14.5703125,10.4023438 14.6660156,10.4433594 14.7324219,10.5253906 C14.7988281,10.6074219 14.8320312,10.6992188 14.8320312,10.8007812 C14.8320312,10.8242188 14.828125,10.8632812 14.8203125,10.9179688 C14.8125,10.9726562 14.7890625,11.0390625 14.75,11.1171875 C14.6484375,11.375 14.5566406,11.7226562 14.4746094,12.1601562 C14.3925781,12.5976562 14.3515625,12.9960938 14.3515625,13.3554688 C14.3515625,14.4882812 14.5800781,15.4667969 15.0371094,16.2910156 C15.4941406,17.1152344 16.1367188,17.75 16.9648438,18.1953125 C17.7929688,18.640625 18.7734375,18.8632812 19.90625,18.8632812 C20.296875,18.8632812 20.6757812,18.828125 21.0429688,18.7578125 C21.4101562,18.6875 21.7070312,18.6132812 21.9335938,18.5351562 C22.0664062,18.4960938 22.171875,18.4765625 22.25,18.4765625 C22.3515625,18.4765625 22.4414062,18.5117188 22.5195312,18.5820312 C22.5976562,18.6523438 22.6367188,18.7460938 22.6367188,18.8632812 C22.6367188,18.9023438 22.6328125,18.9570312 22.625,19.0273438 C22.6171875,19.0976562 22.5976562,19.171875 22.5664062,19.25 C22.2851562,19.9453125 21.8554688,20.5742188 21.2773438,21.1367188 C20.6992188,21.6992188 20.015625,22.1484375 19.2265625,22.484375 C18.4375,22.8203125 17.5898438,22.9882812 16.6835938,22.9882812 Z" id="􀆼" fill="#000000" fill-rule="nonzero"></path>
    </g>
</svg>