<?xml version="1.0" encoding="UTF-8"?>
<svg width="32px" height="32px" viewBox="0 0 32 32" version="1.1" xmlns="http://www.w3.org/2000/svg" xmlns:xlink="http://www.w3.org/1999/xlink">
    <title>sun</title>
    <g id="sun" stroke="none" stroke-width="1" fill="none" fill-rule="evenodd">
        <path d="M16.1992188,8.39453125 C16.4882812,8.39453125 16.7363281,8.2890625 16.9433594,8.078125 C17.1503906,7.8671875 17.2539062,7.62109375 17.2539062,7.33984375 L17.2539062,5.0546875 C17.2539062,4.7734375 17.1503906,4.52734375 16.9433594,4.31640625 C16.7363281,4.10546875 16.4882812,4 16.1992188,4 C15.9179688,4 15.6738281,4.10546875 15.4667969,4.31640625 C15.2597656,4.52734375 15.15625,4.7734375 15.15625,5.0546875 L15.15625,7.33984375 C15.15625,7.62109375 15.2597656,7.8671875 15.4667969,8.078125 C15.6738281,8.2890625 15.9179688,8.39453125 16.1992188,8.39453125 Z M22.46875,11.0078125 C22.765625,11.0078125 23.015625,10.90625 23.21875,10.703125 L24.8476562,9.0859375 C25.0429688,8.8828125 25.140625,8.6328125 25.140625,8.3359375 C25.140625,8.0390625 25.0390625,7.7890625 24.8359375,7.5859375 C24.640625,7.3828125 24.3945312,7.28320312 24.0976562,7.28710938 C23.8007812,7.29101562 23.5546875,7.39453125 23.359375,7.59765625 L21.71875,9.2265625 C21.5234375,9.4296875 21.4257812,9.67578125 21.4257812,9.96484375 C21.4257812,10.2539062 21.5234375,10.5039062 21.71875,10.7148438 C21.921875,10.9101562 22.171875,11.0078125 22.46875,11.0078125 Z M9.92382812,11.0078125 C10.2167969,11.0078125 10.4648438,10.9101562 10.6679688,10.7148438 C10.8710938,10.5117188 10.9726562,10.2617188 10.9726562,9.96484375 C10.9726562,9.66796875 10.875,9.421875 10.6796875,9.2265625 L9.0625,7.59765625 C8.8671875,7.40234375 8.61914062,7.30078125 8.31835938,7.29296875 C8.01757812,7.28515625 7.7734375,7.3828125 7.5859375,7.5859375 C7.375,7.7890625 7.26953125,8.0390625 7.26953125,8.3359375 C7.26953125,8.6328125 7.3671875,8.87890625 7.5625,9.07421875 L9.19140625,10.703125 C9.38671875,10.90625 9.63085938,11.0078125 9.92382812,11.0078125 Z M16.1992188,21.9882812 C16.9804688,21.9882812 17.71875,21.8359375 18.4140625,21.53125 C19.109375,21.2265625 19.7207031,20.8105469 20.2480469,20.2832031 C20.7753906,19.7558594 21.1914062,19.1445312 21.4960938,18.4492188 C21.8007812,17.7539062 21.953125,17.0117188 21.953125,16.2226562 C21.953125,15.4335938 21.8007812,14.6914062 21.4960938,13.9960938 C21.1914062,13.3007812 20.7753906,12.6894531 20.2480469,12.1621094 C19.7207031,11.6347656 19.109375,11.2207031 18.4140625,10.9199219 C17.71875,10.6191406 16.9804688,10.46875 16.1992188,10.46875 C15.4101562,10.46875 14.6699219,10.6191406 13.9785156,10.9199219 C13.2871094,11.2207031 12.6757812,11.6347656 12.1445312,12.1621094 C11.6132812,12.6894531 11.1972656,13.3007812 10.8964844,13.9960938 C10.5957031,14.6914062 10.4453125,15.4335938 10.4453125,16.2226562 C10.4453125,17.0117188 10.5957031,17.7539062 10.8964844,18.4492188 C11.1972656,19.1445312 11.6132812,19.7558594 12.1445312,20.2832031 C12.6757812,20.8105469 13.2871094,21.2265625 13.9785156,21.53125 C14.6699219,21.8359375 15.4101562,21.9882812 16.1992188,21.9882812 Z M16.1992188,20.0664062 C15.4960938,20.0664062 14.8535156,19.8925781 14.2714844,19.5449219 C13.6894531,19.1972656 13.2246094,18.7324219 12.8769531,18.1503906 C12.5292969,17.5683594 12.3554688,16.9257812 12.3554688,16.2226562 C12.3554688,15.5273438 12.5292969,14.8867188 12.8769531,14.3007812 C13.2246094,13.7148438 13.6894531,13.2480469 14.2714844,12.9003906 C14.8535156,12.5527344 15.4960938,12.3789062 16.1992188,12.3789062 C16.8945312,12.3789062 17.5351562,12.5527344 18.1210938,12.9003906 C18.7070312,13.2480469 19.1738281,13.7148438 19.5214844,14.3007812 C19.8691406,14.8867188 20.0429688,15.5273438 20.0429688,16.2226562 C20.0429688,16.9257812 19.8691406,17.5683594 19.5214844,18.1503906 C19.1738281,18.7324219 18.7070312,19.1972656 18.1210938,19.5449219 C17.5351562,19.8925781 16.8945312,20.0664062 16.1992188,20.0664062 Z M27.3554688,17.2773438 C27.6367188,17.2773438 27.8808594,17.1738281 28.0878906,16.9667969 C28.2949219,16.7597656 28.3984375,16.5117188 28.3984375,16.2226562 C28.3984375,15.9414062 28.2949219,15.6972656 28.0878906,15.4902344 C27.8808594,15.2832031 27.6367188,15.1796875 27.3554688,15.1796875 L25.0703125,15.1796875 C24.78125,15.1796875 24.5332031,15.2832031 24.3261719,15.4902344 C24.1191406,15.6972656 24.015625,15.9414062 24.015625,16.2226562 C24.015625,16.5117188 24.1191406,16.7597656 24.3261719,16.9667969 C24.5332031,17.1738281 24.78125,17.2773438 25.0703125,17.2773438 L27.3554688,17.2773438 Z M7.33984375,17.2773438 C7.62109375,17.2773438 7.86523438,17.1738281 8.07226562,16.9667969 C8.27929688,16.7597656 8.3828125,16.5117188 8.3828125,16.2226562 C8.3828125,15.9414062 8.27929688,15.6972656 8.07226562,15.4902344 C7.86523438,15.2832031 7.62109375,15.1796875 7.33984375,15.1796875 L5.0546875,15.1796875 C4.765625,15.1796875 4.51757812,15.2832031 4.31054688,15.4902344 C4.10351562,15.6972656 4,15.9414062 4,16.2226562 C4,16.5117188 4.10351562,16.7597656 4.31054688,16.9667969 C4.51757812,17.1738281 4.765625,17.2773438 5.0546875,17.2773438 L7.33984375,17.2773438 Z M24.1035156,25.1640625 C24.3964844,25.1640625 24.6445312,25.0625 24.8476562,24.859375 C25.0429688,24.65625 25.140625,24.4082031 25.140625,24.1152344 C25.140625,23.8222656 25.0429688,23.578125 24.8476562,23.3828125 L23.2070312,21.7539062 C23.0039062,21.5585938 22.7558594,21.4609375 22.4628906,21.4609375 C22.1699219,21.4609375 21.921875,21.5585938 21.71875,21.7539062 C21.5234375,21.9570312 21.4257812,22.2050781 21.4257812,22.4980469 C21.4257812,22.7910156 21.5234375,23.0390625 21.71875,23.2421875 L23.3710938,24.8710938 C23.5664062,25.0664062 23.8105469,25.1640625 24.1035156,25.1640625 Z M8.2890625,25.1582031 C8.5859375,25.1621094 8.8359375,25.0625 9.0390625,24.859375 L10.6679688,23.2421875 C10.8710938,23.0390625 10.9726562,22.7910156 10.9726562,22.4980469 C10.9726562,22.2050781 10.875,21.9609375 10.6796875,21.765625 C10.4765625,21.5625 10.2265625,21.4609375 9.9296875,21.4609375 C9.6328125,21.4609375 9.38671875,21.5585938 9.19140625,21.7539062 L7.55078125,23.3710938 C7.35546875,23.5664062 7.25585938,23.8105469 7.25195312,24.1035156 C7.24804688,24.3964844 7.34765625,24.6445312 7.55078125,24.8476562 C7.74609375,25.0507812 7.9921875,25.1542969 8.2890625,25.1582031 Z M16.1992188,28.4570312 C16.4882812,28.4570312 16.7363281,28.3515625 16.9433594,28.140625 C17.1503906,27.9296875 17.2539062,27.6796875 17.2539062,27.390625 L17.2539062,25.1171875 C17.2539062,24.828125 17.1503906,24.5800781 16.9433594,24.3730469 C16.7363281,24.1660156 16.4882812,24.0625 16.1992188,24.0625 C15.9179688,24.0625 15.6738281,24.1660156 15.4667969,24.3730469 C15.2597656,24.5800781 15.15625,24.828125 15.15625,25.1171875 L15.15625,27.390625 C15.15625,27.6796875 15.2597656,27.9296875 15.4667969,28.140625 C15.6738281,28.3515625 15.9179688,28.4570312 16.1992188,28.4570312 Z" id="􀆭" fill="#000000" fill-rule="nonzero"></path>
    </g>
</svg>