<?xml version="1.0" standalone="no"?>
<!DOCTYPE svg PUBLIC "-//W3C//DTD SVG 20010904//EN"
 "http://www.w3.org/TR/2001/REC-SVG-20010904/DTD/svg10.dtd">
<svg version="1.0" xmlns="http://www.w3.org/2000/svg"
 width="700.000000pt" height="700.000000pt" viewBox="0 0 700.000000 700.000000"
 preserveAspectRatio="xMidYMid meet">
<metadata>
Created by potrace 1.14, written by Peter Selinger 2001-2017
</metadata>
<g transform="translate(0.000000,700.000000) scale(0.100000,-0.100000)"
fill="#000000" stroke="none">
<path d="M3345 6510 l-60 -5 0 -392 c0 -215 -3 -394 -5 -397 -3 -3 -54 -12
-113 -21 -883 -131 -1602 -786 -1822 -1660 -18 -71 -38 -170 -44 -220 -7 -49
-16 -92 -21 -95 -5 -3 -180 -5 -390 -5 -210 0 -386 -3 -393 -7 -12 -8 -15
-403 -3 -416 4 -4 182 -7 396 -7 214 0 391 -2 393 -5 3 -3 13 -53 21 -113 83
-559 390 -1079 839 -1424 235 -180 511 -317 777 -386 145 -37 201 -48 311 -62
l54 -7 0 -390 c0 -214 3 -394 6 -400 10 -16 408 -16 417 -1 4 6 7 186 7 398 0
213 2 388 5 390 6 3 50 11 152 25 38 6 120 24 185 40 667 175 1212 644 1483
1275 79 183 145 426 164 599 3 27 8 51 11 55 4 3 183 6 398 6 l392 0 5 50 c4
43 5 224 1 345 l-1 35 -396 0 c-218 0 -398 3 -400 7 -3 4 -7 24 -9 45 -5 37
-9 65 -21 141 -3 20 -19 88 -35 149 -199 777 -815 1392 -1594 1593 -60 15
-128 31 -150 34 -118 18 -185 31 -186 35 -1 4 -2 180 -3 393 -1 212 -4 389 -7
393 -8 7 -285 12 -364 5z m-60 -1616 l0 -657 -39 -13 c-180 -63 -348 -211
-429 -380 -21 -43 -44 -90 -50 -104 l-13 -25 -663 0 -663 0 6 60 c16 156 71
364 141 530 100 239 279 504 460 679 71 69 187 168 237 202 24 16 45 32 48 35
3 3 48 32 99 63 213 128 449 219 671 260 162 31 185 33 190 19 3 -7 5 -308 5
-669z m500 672 c28 -3 61 -8 75 -11 14 -2 50 -10 80 -16 54 -10 181 -44 210
-56 8 -3 20 -7 25 -8 38 -10 167 -64 259 -111 281 -141 515 -334 726 -600 28
-35 110 -155 110 -160 0 -3 9 -19 20 -34 38 -54 138 -266 175 -370 55 -159 98
-345 99 -435 l1 -50 -658 0 c-362 0 -662 2 -666 5 -5 3 -14 23 -21 45 -39 119
-150 268 -260 350 -54 40 -198 115 -221 115 -9 0 -19 6 -21 13 -4 10 -3 1307
1 1330 0 5 4 6 9 4 4 -3 30 -7 57 -11z m-997 -2346 c45 -109 92 -181 172 -260
76 -77 197 -156 275 -180 22 -7 42 -16 45 -21 4 -6 5 -1268 1 -1320 -1 -14
-10 -14 -83 -2 -127 20 -261 52 -367 88 -445 152 -819 442 -1078 836 -61 93
-173 308 -188 359 -4 14 -13 39 -20 55 -34 77 -87 275 -102 380 -3 22 -8 59
-13 82 -4 23 -3 44 1 45 5 2 307 3 670 3 l660 0 27 -65z m2778 5 c-3 -33 -8
-73 -11 -90 -88 -441 -270 -792 -576 -1106 -253 -260 -632 -472 -999 -559
-100 -23 -110 -25 -205 -36 l-60 -6 1 663 c1 365 2 667 3 670 0 3 19 11 41 18
117 35 257 137 345 251 58 75 88 132 124 230 l9 25 667 0 667 0 -6 -60z"/>
</g>
</svg>
